<svg version="1.1" xmlns="http://www.w3.org/2000/svg" xmlns:xlink="http://www.w3.org/1999/xlink" width="246.4518" height="70.30721" viewBox="0,0,246.4518,70.30721"><defs><linearGradient x1="235.97036" y1="156.85916" x2="235.97036" y2="182.69517" gradientUnits="userSpaceOnUse" id="color-1"><stop offset="0" stop-color="#007bcc"/><stop offset="1" stop-color="#0064c9"/></linearGradient><linearGradient x1="276.54904" y1="144.84639" x2="276.54904" y2="185.40891" gradientUnits="userSpaceOnUse" id="color-2"><stop offset="0" stop-color="#007bcc"/><stop offset="1" stop-color="#0064c9"/></linearGradient><linearGradient x1="195.4458" y1="144.84639" x2="195.4458" y2="185.40891" gradientUnits="userSpaceOnUse" id="color-3"><stop offset="0" stop-color="#007bcc"/><stop offset="1" stop-color="#0064c9"/></linearGradient><linearGradient x1="337.60189" y1="144.84639" x2="337.60189" y2="185.40891" gradientUnits="userSpaceOnUse" id="color-4"><stop offset="0" stop-color="#007bcc"/><stop offset="1" stop-color="#0064c9"/></linearGradient><linearGradient x1="235.40437" y1="144.84639" x2="235.40437" y2="185.40891" gradientUnits="userSpaceOnUse" id="color-5"><stop offset="0" stop-color="#007bcc"/><stop offset="1" stop-color="#0064c9"/></linearGradient><linearGradient x1="135.09211" y1="144.84639" x2="135.09211" y2="185.40891" gradientUnits="userSpaceOnUse" id="color-6"><stop offset="0" stop-color="#007bcc"/><stop offset="1" stop-color="#0064c9"/></linearGradient><linearGradient x1="305.87528" y1="144.84639" x2="305.87528" y2="185.40891" gradientUnits="userSpaceOnUse" id="color-7"><stop offset="0" stop-color="#007bcc"/><stop offset="1" stop-color="#0064c9"/></linearGradient><linearGradient x1="163.54426" y1="144.84639" x2="163.54426" y2="185.40891" gradientUnits="userSpaceOnUse" id="color-8"><stop offset="0" stop-color="#007bcc"/><stop offset="1" stop-color="#0064c9"/></linearGradient><linearGradient x1="279.08666" y1="192.98771" x2="279.08666" y2="215.15361" gradientUnits="userSpaceOnUse" id="color-9"><stop offset="0" stop-color="#007bcc"/><stop offset="1" stop-color="#0064c9"/></linearGradient><linearGradient x1="236.92963" y1="193.35733" x2="236.92963" y2="214.78399" gradientUnits="userSpaceOnUse" id="color-10"><stop offset="0" stop-color="#007bcc"/><stop offset="1" stop-color="#0064c9"/></linearGradient><linearGradient x1="188.07184" y1="193.35733" x2="188.07184" y2="214.78399" gradientUnits="userSpaceOnUse" id="color-11"><stop offset="0" stop-color="#007bcc"/><stop offset="1" stop-color="#0064c9"/></linearGradient><linearGradient x1="134.71633" y1="192.98771" x2="134.71633" y2="215.15361" gradientUnits="userSpaceOnUse" id="color-12"><stop offset="0" stop-color="#007bcc"/><stop offset="1" stop-color="#0064c9"/></linearGradient><linearGradient x1="212.50248" y1="193.35733" x2="212.50248" y2="215.15361" gradientUnits="userSpaceOnUse" id="color-13"><stop offset="0" stop-color="#007bcc"/><stop offset="1" stop-color="#0064c9"/></linearGradient><linearGradient x1="166.24796" y1="193.35733" x2="166.24796" y2="214.78399" gradientUnits="userSpaceOnUse" id="color-14"><stop offset="0" stop-color="#007bcc"/><stop offset="1" stop-color="#0064c9"/></linearGradient><linearGradient x1="151.76622" y1="193.35733" x2="151.76622" y2="214.78399" gradientUnits="userSpaceOnUse" id="color-15"><stop offset="0" stop-color="#007bcc"/><stop offset="1" stop-color="#0064c9"/></linearGradient><linearGradient x1="261.14523" y1="193.35733" x2="261.14523" y2="214.78399" gradientUnits="userSpaceOnUse" id="color-16"><stop offset="0" stop-color="#007bcc"/><stop offset="1" stop-color="#0064c9"/></linearGradient><linearGradient x1="119.74459" y1="209.08761" x2="119.74459" y2="215.02859" gradientUnits="userSpaceOnUse" id="color-17"><stop offset="0" stop-color="#007bcc"/><stop offset="1" stop-color="#0064c9"/></linearGradient><linearGradient x1="252.50622" y1="209.08761" x2="252.50622" y2="215.02859" gradientUnits="userSpaceOnUse" id="color-18"><stop offset="0" stop-color="#007bcc"/><stop offset="1" stop-color="#0064c9"/></linearGradient><linearGradient x1="279.42737" y1="144.84639" x2="279.42737" y2="185.40891" gradientUnits="userSpaceOnUse" id="color-19"><stop offset="0" stop-color="#0099ff"/><stop offset="1" stop-color="#0078f3"/></linearGradient><linearGradient x1="198.32413" y1="144.84639" x2="198.32413" y2="185.40891" gradientUnits="userSpaceOnUse" id="color-20"><stop offset="0" stop-color="#0099ff"/><stop offset="1" stop-color="#0078f3"/></linearGradient><linearGradient x1="340.48023" y1="144.84639" x2="340.48023" y2="185.40891" gradientUnits="userSpaceOnUse" id="color-21"><stop offset="0" stop-color="#0099ff"/><stop offset="1" stop-color="#0078f3"/></linearGradient><linearGradient x1="238.2827" y1="144.84639" x2="238.2827" y2="185.40891" gradientUnits="userSpaceOnUse" id="color-22"><stop offset="0" stop-color="#0099ff"/><stop offset="1" stop-color="#0078f3"/></linearGradient><linearGradient x1="137.97043" y1="144.84639" x2="137.97043" y2="185.40891" gradientUnits="userSpaceOnUse" id="color-23"><stop offset="0" stop-color="#0099ff"/><stop offset="1" stop-color="#0078f3"/></linearGradient><linearGradient x1="308.75361" y1="144.84639" x2="308.75361" y2="185.40891" gradientUnits="userSpaceOnUse" id="color-24"><stop offset="0" stop-color="#0099ff"/><stop offset="1" stop-color="#0078f3"/></linearGradient><linearGradient x1="166.42259" y1="144.84639" x2="166.42259" y2="185.40891" gradientUnits="userSpaceOnUse" id="color-25"><stop offset="0" stop-color="#0099ff"/><stop offset="1" stop-color="#0078f3"/></linearGradient><linearGradient x1="280.78749" y1="192.98772" x2="280.78749" y2="215.15361" gradientUnits="userSpaceOnUse" id="color-26"><stop offset="0" stop-color="#0099ff"/><stop offset="1" stop-color="#0078f3"/></linearGradient><linearGradient x1="238.63047" y1="193.35733" x2="238.63047" y2="214.78399" gradientUnits="userSpaceOnUse" id="color-27"><stop offset="0" stop-color="#0099ff"/><stop offset="1" stop-color="#0078f3"/></linearGradient><linearGradient x1="189.77267" y1="193.35733" x2="189.77267" y2="214.78399" gradientUnits="userSpaceOnUse" id="color-28"><stop offset="0" stop-color="#0099ff"/><stop offset="1" stop-color="#0078f3"/></linearGradient><linearGradient x1="136.41716" y1="192.98772" x2="136.41716" y2="215.15361" gradientUnits="userSpaceOnUse" id="color-29"><stop offset="0" stop-color="#0099ff"/><stop offset="1" stop-color="#0078f3"/></linearGradient><linearGradient x1="214.20331" y1="193.35733" x2="214.20331" y2="215.15361" gradientUnits="userSpaceOnUse" id="color-30"><stop offset="0" stop-color="#0099ff"/><stop offset="1" stop-color="#0078f3"/></linearGradient><linearGradient x1="167.94879" y1="193.35733" x2="167.94879" y2="214.78399" gradientUnits="userSpaceOnUse" id="color-31"><stop offset="0" stop-color="#0099ff"/><stop offset="1" stop-color="#0078f3"/></linearGradient><linearGradient x1="153.46705" y1="193.35733" x2="153.46705" y2="214.78399" gradientUnits="userSpaceOnUse" id="color-32"><stop offset="0" stop-color="#0099ff"/><stop offset="1" stop-color="#0078f3"/></linearGradient><linearGradient x1="262.84607" y1="193.35733" x2="262.84607" y2="214.78399" gradientUnits="userSpaceOnUse" id="color-33"><stop offset="0" stop-color="#0099ff"/><stop offset="1" stop-color="#0078f3"/></linearGradient><linearGradient x1="121.44542" y1="209.08761" x2="121.44542" y2="215.02859" gradientUnits="userSpaceOnUse" id="color-34"><stop offset="0" stop-color="#0099ff"/><stop offset="1" stop-color="#0078f3"/></linearGradient><linearGradient x1="254.20705" y1="209.08761" x2="254.20705" y2="215.02859" gradientUnits="userSpaceOnUse" id="color-35"><stop offset="0" stop-color="#0099ff"/><stop offset="1" stop-color="#0078f3"/></linearGradient></defs><g transform="translate(-116.7741,-144.84639)"><g data-paper-data="{&quot;isPaintingLayer&quot;:true}" fill-rule="nonzero" stroke="none" stroke-width="1" stroke-linecap="butt" stroke-linejoin="miter" stroke-miterlimit="10" stroke-dasharray="" stroke-dashoffset="0" style="mix-blend-mode: normal"><path d="" fill="url(#color-1)"/><path d="M258.58299,185.40891v-40.56252h17.32807c5.64569,0 10.03259,1.30337 13.1607,3.91013c3.12811,2.60676 4.69216,6.2082 4.69216,10.80433c0,3.01149 -0.71686,5.61139 -2.15058,7.79969c-1.42685,2.18144 -3.45395,3.85183 -6.08129,5.01115c-0.02554,0.01127 -0.05113,0.02248 -0.07677,0.03365l9.0598,13.00357h-10.13549l-7.78683,-11.30117c-0.1475,0.00196 -0.29584,0.00294 -0.44503,0.00294h-8.17013v11.29823zM275.62296,166.72809c2.90174,0 5.06603,-0.62768 6.49288,-1.88304c1.42685,-1.25536 2.14029,-2.98405 2.14029,-5.18608c0,-2.24318 -0.71343,-3.98216 -2.14029,-5.21694c-1.42685,-1.23478 -3.59115,-1.85218 -6.49288,-1.85218l-7.64535,-0.08847v14.2267z" fill="url(#color-2)"/><path d="M177.85532,185.40891v-40.56252h17.56474c3.62888,0 6.75699,0.58994 9.38433,1.76984c2.62734,1.17304 4.65444,2.86058 6.08129,5.0626c1.43372,2.20203 2.15058,4.82936 2.15058,7.88201c0,3.01149 -0.71686,5.61825 -2.15058,7.82028c-1.42685,2.20203 -3.45395,3.89299 -6.08129,5.07289c-2.62734,1.1799 -5.75545,1.76985 -9.38433,1.76985h-8.17013v11.18504zM194.89528,166.4804c2.90174,0 5.06603,-0.61739 6.49289,-1.85217c1.42685,-1.24164 2.14029,-2.96348 2.14029,-5.1655c0,-2.24318 -0.71343,-3.98216 -2.14029,-5.21694c-1.42685,-1.23478 -3.59115,-1.85218 -6.49289,-1.85218l-7.64535,0.00966v14.07713z" fill="url(#color-3)"/><path d="M314.85622,185.40891l18.07923,-40.56252h9.28144l18.13067,40.56252h-9.84736l-3.60185,-8.69491h-18.8043l-3.61684,8.69491zM343.9444,169.58315l-6.42868,-15.51888l-6.45543,15.51888z" fill="url(#color-4)"/><path d="M219.69694,185.40891v-40.56252h30.66371v7.53216h-21.33083v8.8081h18.84069v7.29549h-18.84069v9.39462h22.08198v7.53216z" fill="url(#color-5)"/><path d="M117.35758,185.40891v-6.08129l22.26284,-26.83589h-21.7998v-7.64534h34.13138v6.08129l-22.20807,26.83589h23.08271v7.64534z" fill="url(#color-6)"/><path d="M301.17797,185.40891v-40.56252h9.39462v40.56252z" fill="url(#color-7)"/><path d="M158.84695,185.40891v-40.56252h9.39462v40.56252z" fill="url(#color-8)"/><path d="M279.11383,215.15361c-1.69225,0 -3.25767,-0.2754 -4.69626,-0.8262c-1.43859,-0.55441 -2.68331,-1.32988 -3.73417,-2.32639c-1.05086,-1.00013 -1.868,-2.17419 -2.4514,-3.52219c-0.57979,-1.348 -0.86968,-2.81739 -0.86968,-4.40817c0,-1.59079 0.28989,-3.06018 0.86968,-4.40818c0.5834,-1.348 1.40417,-2.52205 2.46228,-3.52218c1.06173,-1.00013 2.30645,-1.7756 3.73417,-2.32639c1.43134,-0.55079 2.98408,-0.82619 4.65821,-0.82619c1.69225,0 3.2468,0.27539 4.66364,0.82619c1.42047,0.55079 2.65612,1.32626 3.70699,2.32639c1.05086,1.00013 1.87162,2.16875 2.46228,3.50588c0.59428,1.33713 0.89142,2.81196 0.89142,4.42449c0,1.59079 -0.29715,3.0656 -0.89142,4.42448c-0.59066,1.35525 -1.41141,2.5275 -2.46228,3.51676c-1.05086,0.98926 -2.28652,1.7611 -3.70699,2.31551c-1.41685,0.55079 -2.96234,0.8262 -4.63647,0.8262zM279.08666,210.9248c0.95665,0 1.83719,-0.16306 2.64164,-0.48919c0.80807,-0.32613 1.51831,-0.7954 2.13071,-1.40779c0.61239,-0.61239 1.08709,-1.33713 1.42409,-2.17419c0.337,-0.83706 0.50551,-1.76472 0.50551,-2.78296c0,-1.02187 -0.16851,-1.95134 -0.50551,-2.7884c-0.337,-0.83706 -0.80626,-1.5618 -1.40779,-2.17419c-0.60153,-0.61239 -1.31177,-1.08166 -2.13071,-1.40779c-0.81532,-0.32613 -1.7013,-0.4892 -2.65795,-0.4892c-0.96027,0 -1.84445,0.16307 -2.65252,0.4892c-0.80445,0.32613 -1.51287,0.79539 -2.12527,1.40779c-0.61239,0.61239 -1.0871,1.33713 -1.4241,2.17419c-0.337,0.83706 -0.50549,1.76653 -0.50549,2.7884c0,1.00013 0.16849,1.92416 0.50549,2.77209c0.337,0.84431 0.80627,1.57267 1.40779,2.18506c0.60153,0.61239 1.30994,1.08167 2.12527,1.40779c0.81894,0.32613 1.70856,0.48919 2.66883,0.48919z" fill="url(#color-9)"/><path d="M227.10229,214.78399v-21.42666h10.47417c2.69238,0 4.71618,0.51092 6.07143,1.5328c1.35887,1.01825 2.03831,2.36443 2.03831,4.03856c0,1.11971 -0.2754,2.09447 -0.8262,2.92429c-0.49553,0.7433 -1.15678,1.33408 -1.98373,1.77235c0.19696,0.06519 0.38894,0.13755 0.57595,0.21704c1.03999,0.43846 1.84988,1.0871 2.42966,1.9459c0.5834,0.85519 0.87511,1.90423 0.87511,3.14714c0,1.83719 -0.72473,3.27216 -2.17419,4.3049c-1.44946,1.02912 -3.58198,1.54368 -6.39756,1.54368zM232.03227,211.04982h5.78879c1.28278,0 2.25572,-0.20836 2.91885,-0.62508c0.66675,-0.42034 1.00013,-1.08891 1.00013,-2.0057c0,-0.89867 -0.33338,-1.56723 -1.00013,-2.00569c-0.66313,-0.43846 -1.63607,-0.6577 -2.91885,-0.6577h-5.78879zM236.96225,202.14106c1.20305,0 2.12527,-0.20836 2.76665,-0.62508c0.64501,-0.42034 0.96752,-1.0581 0.96752,-1.91329c0,-0.83706 -0.32251,-1.46396 -0.96752,-1.88068c-0.64138,-0.42034 -1.5636,-0.63051 -2.76665,-0.63051h-4.92999v5.04956z" fill="url(#color-10)"/><path d="M192.94202,214.78399v-8.78374h-9.73495v8.78374h-4.96259v-21.42666h4.96259v8.44673h9.73495v-8.44673h4.95716v21.42666z" fill="url(#color-11)"/><path d="M136.03171,215.15361c-1.69225,0 -3.2486,-0.26997 -4.66908,-0.80989c-1.41685,-0.54355 -2.6507,-1.31538 -3.70156,-2.31551c-1.05086,-1.00013 -1.86799,-2.17238 -2.4514,-3.51675c-0.57979,-1.348 -0.86968,-2.82827 -0.86968,-4.44079c0,-1.61252 0.28989,-3.09279 0.86968,-4.44079c0.5834,-1.348 1.40416,-2.52025 2.46227,-3.51676c1.06173,-1.00013 2.30645,-1.77015 3.73417,-2.31007c1.43134,-0.54355 3.00401,-0.81532 4.718,-0.81532c1.8988,0 3.60736,0.31707 5.12566,0.95121c1.52193,0.63052 2.80289,1.5473 3.84288,2.75035l-3.18519,2.9406c-0.77546,-0.81532 -1.62158,-1.42229 -2.53837,-1.82089c-0.91679,-0.3986 -1.91691,-0.5979 -3.00039,-0.5979c-1.03999,0 -1.98939,0.16307 -2.84819,0.4892c-0.85519,0.32613 -1.59441,0.79539 -2.21768,1.40779c-0.62327,0.61239 -1.1034,1.33713 -1.4404,2.17419c-0.337,0.83706 -0.5055,1.76653 -0.5055,2.7884c0,1.00013 0.1685,1.91873 0.5055,2.75579c0.337,0.83706 0.81713,1.56724 1.4404,2.1905c0.62327,0.61965 1.35706,1.09253 2.20137,1.41866c0.84793,0.32613 1.78284,0.48919 2.80471,0.48919c0.97838,0 1.93141,-0.15763 2.85906,-0.47288c0.33508,-0.11343 0.66665,-0.25549 0.99469,-0.42615v-6.2921h4.53319v8.69134c-1.1632,0.88055 -2.51663,1.55636 -4.06031,2.02743c-1.54005,0.46745 -3.07467,0.70118 -4.60385,0.70118z" fill="url(#color-12)"/><path d="M212.50248,215.15361c-3.04024,0 -5.41737,-0.84613 -7.13135,-2.53837c-1.71398,-1.69587 -2.57098,-4.11646 -2.57098,-7.2618v-11.9961h4.95715v11.81673c0,2.04012 0.41854,3.50951 1.2556,4.40817c0.83706,0.89504 2.01113,1.34256 3.52219,1.34256c1.50744,0 2.6797,-0.44752 3.51676,-1.34256c0.83706,-0.89867 1.2556,-2.36805 1.2556,-4.40817v-11.81673h4.89736v11.9961c0,3.14534 -0.857,5.56592 -2.57098,7.2618c-1.71398,1.69225 -4.0911,2.53837 -7.13134,2.53837z" fill="url(#color-13)"/><path d="M163.76666,214.78399v-17.3881h-6.85414v-4.03856h18.67087v4.03856h-6.85957v17.3881z" fill="url(#color-14)"/><path d="M149.28492,214.78399v-21.42666h4.96259v21.42666z" fill="url(#color-15)"/><path d="M258.66393,214.78399v-21.42666h4.96259v21.42666z" fill="url(#color-16)"/><path d="M119.74731,215.02859c-0.81532,0 -1.5147,-0.28083 -2.0981,-0.8425c-0.5834,-0.56167 -0.87511,-1.28096 -0.87511,-2.15789c0,-0.87692 0.29171,-1.58535 0.87511,-2.12528c0.5834,-0.54355 1.28278,-0.81532 2.0981,-0.81532c0.83706,0 1.54005,0.27177 2.10896,0.81532c0.57254,0.53992 0.85881,1.24835 0.85881,2.12528c0,0.87692 -0.28627,1.59622 -0.85881,2.15789c-0.56891,0.56167 -1.2719,0.8425 -2.10896,0.8425z" fill="url(#color-17)"/><path d="M252.50893,215.02859c-0.81532,0 -1.5147,-0.28083 -2.0981,-0.8425c-0.5834,-0.56167 -0.87511,-1.28096 -0.87511,-2.15789c0,-0.87692 0.29171,-1.58535 0.87511,-2.12528c0.5834,-0.54355 1.28278,-0.81532 2.0981,-0.81532c0.83706,0 1.54005,0.27177 2.10896,0.81532c0.57254,0.53992 0.85881,1.24835 0.85881,2.12528c0,0.87692 -0.28627,1.59622 -0.85881,2.15789c-0.56891,0.56167 -1.2719,0.8425 -2.10896,0.8425z" fill="url(#color-18)"/><path d="M261.46132,185.40891v-40.56252h17.32807c5.64569,0 10.03259,1.30337 13.1607,3.91013c3.12811,2.60676 4.69216,6.2082 4.69216,10.80433c0,3.01149 -0.71685,5.61139 -2.15057,7.79969c-1.42685,2.18144 -3.45396,3.85183 -6.0813,5.01115c-0.02554,0.01127 -0.05113,0.02248 -0.07677,0.03365l9.05979,13.00357h-10.13548l-7.78684,-11.30117c-0.1475,0.00196 -0.29584,0.00294 -0.44503,0.00294h-8.17013v11.29823zM278.50128,166.72809c2.90174,0 5.06603,-0.62768 6.49288,-1.88304c1.42685,-1.25536 2.14029,-2.98405 2.14029,-5.18608c0,-2.24318 -0.71343,-3.98216 -2.14029,-5.21694c-1.42685,-1.23478 -3.59115,-1.85218 -6.49288,-1.85218l-7.64535,-0.08847v14.2267z" fill="url(#color-19)"/><path d="M180.73366,185.40891v-40.56252h17.56474c3.62888,0 6.75699,0.58994 9.38433,1.76984c2.62734,1.17304 4.65444,2.86058 6.08129,5.0626c1.43372,2.20203 2.15058,4.82936 2.15058,7.88201c0,3.01149 -0.71686,5.61825 -2.15058,7.82028c-1.42685,2.20203 -3.45395,3.89299 -6.08129,5.07289c-2.62734,1.1799 -5.75545,1.76985 -9.38433,1.76985h-8.17013v11.18504zM197.77362,166.4804c2.90174,0 5.06603,-0.61739 6.49289,-1.85217c1.42685,-1.24164 2.14029,-2.96348 2.14029,-5.1655c0,-2.24318 -0.71343,-3.98216 -2.14029,-5.21694c-1.42685,-1.23478 -3.59115,-1.85218 -6.49289,-1.85218l-7.64535,0.00966v14.07713z" fill="url(#color-20)"/><path d="M317.73455,185.40891l18.07923,-40.56252h9.28144l18.13068,40.56252h-9.84736l-3.60185,-8.69491h-18.8043l-3.61684,8.69491zM346.82273,169.58315l-6.42868,-15.51888l-6.45543,15.51888z" fill="url(#color-21)"/><path d="M222.57527,185.40891v-40.56252h30.6637v7.53216h-21.33083v8.8081h18.84069v7.29549h-18.84069v9.39462h22.08198v7.53216z" fill="url(#color-22)"/><path d="M120.2359,185.40891v-6.08129l22.26284,-26.83589h-21.79979v-7.64534h34.13137v6.08129l-22.20806,26.83589h23.0827v7.64534z" fill="url(#color-23)"/><path d="M304.0563,185.40891v-40.56252h9.39462v40.56252z" fill="url(#color-24)"/><path d="M161.72528,185.40891v-40.56252h9.39462v40.56252z" fill="url(#color-25)"/><path d="M280.81466,215.15361c-1.69225,0 -3.25767,-0.2754 -4.69626,-0.82619c-1.43859,-0.55442 -2.68331,-1.32988 -3.73417,-2.32639c-1.05086,-1.00013 -1.868,-2.17419 -2.45141,-3.52219c-0.57978,-1.348 -0.86968,-2.81739 -0.86968,-4.40818c0,-1.59079 0.28989,-3.06018 0.86968,-4.40818c0.58341,-1.348 1.40416,-2.52206 2.46227,-3.52219c1.06173,-1.00013 2.30646,-1.77559 3.73418,-2.32639c1.43134,-0.55079 2.98408,-0.82619 4.65821,-0.82619c1.69225,0 3.24679,0.2754 4.66364,0.82619c1.42047,0.55079 2.65613,1.32626 3.707,2.32639c1.05086,1.00013 1.87162,2.16876 2.46227,3.50589c0.59428,1.33713 0.89142,2.81195 0.89142,4.42448c0,1.59079 -0.29714,3.06561 -0.89142,4.42448c-0.59066,1.35525 -1.41141,2.5275 -2.46227,3.51676c-1.05086,0.98926 -2.28652,1.7611 -3.707,2.31551c-1.41685,0.55079 -2.96234,0.82619 -4.63647,0.82619zM280.78749,210.9248c0.95664,0 1.83719,-0.16306 2.64164,-0.48919c0.80807,-0.32613 1.51831,-0.7954 2.13071,-1.40779c0.6124,-0.6124 1.08709,-1.33713 1.42409,-2.17419c0.337,-0.83706 0.5055,-1.76472 0.5055,-2.78296c0,-1.02187 -0.1685,-1.95134 -0.5055,-2.7884c-0.337,-0.83706 -0.80626,-1.5618 -1.40779,-2.17419c-0.60153,-0.6124 -1.31176,-1.08166 -2.13071,-1.40779c-0.81532,-0.32613 -1.70131,-0.48919 -2.65795,-0.48919c-0.96027,0 -1.84444,0.16307 -2.65251,0.48919c-0.80445,0.32613 -1.51288,0.79539 -2.12527,1.40779c-0.6124,0.6124 -1.08709,1.33713 -1.42409,2.17419c-0.337,0.83706 -0.5055,1.76653 -0.5055,2.7884c0,1.00013 0.1685,1.92416 0.5055,2.7721c0.337,0.84431 0.80626,1.57266 1.40779,2.18506c0.60153,0.6124 1.30995,1.08167 2.12527,1.40779c0.81895,0.32613 1.70856,0.48919 2.66882,0.48919z" fill="url(#color-26)"/><path d="M228.80312,214.78399v-21.42666h10.47417c2.69238,0 4.71619,0.51093 6.07143,1.5328c1.35887,1.01825 2.03831,2.36443 2.03831,4.03856c0,1.11971 -0.2754,2.09447 -0.82619,2.92429c-0.49553,0.7433 -1.15678,1.33408 -1.98374,1.77235c0.19696,0.0652 0.38894,0.13754 0.57595,0.21704c1.03999,0.43846 1.84988,1.08709 2.42966,1.9459c0.58341,0.85518 0.87511,1.90423 0.87511,3.14715c0,1.83719 -0.72473,3.27216 -2.17419,4.3049c-1.44946,1.02912 -3.58198,1.54368 -6.39756,1.54368zM233.7331,211.04982h5.78879c1.28278,0 2.25572,-0.20836 2.91885,-0.62508c0.66675,-0.42034 1.00013,-1.08891 1.00013,-2.00569c0,-0.89867 -0.33338,-1.56723 -1.00013,-2.00569c-0.66313,-0.43846 -1.63608,-0.65769 -2.91885,-0.65769h-5.78879zM238.66308,202.14106c1.20305,0 2.12527,-0.20836 2.76666,-0.62508c0.64501,-0.42034 0.96752,-1.0581 0.96752,-1.91329c0,-0.83706 -0.32251,-1.46396 -0.96752,-1.88067c-0.64139,-0.42034 -1.56361,-0.63052 -2.76666,-0.63052h-4.92998v5.04956z" fill="url(#color-27)"/><path d="M194.64286,214.78399v-8.78373h-9.73495v8.78373h-4.96259v-21.42666h4.96259v8.44673h9.73495v-8.44673h4.95716v21.42666z" fill="url(#color-28)"/><path d="M137.73254,215.15361c-1.69225,0 -3.2486,-0.26996 -4.66908,-0.80989c-1.41685,-0.54355 -2.6507,-1.31538 -3.70156,-2.31551c-1.05086,-1.00013 -1.86799,-2.17238 -2.4514,-3.51675c-0.57978,-1.348 -0.86968,-2.82826 -0.86968,-4.44079c0,-1.61253 0.28989,-3.09279 0.86968,-4.44079c0.58341,-1.348 1.40416,-2.52025 2.46227,-3.51675c1.06173,-1.00013 2.30645,-1.77015 3.73417,-2.31008c1.43134,-0.54355 3.00401,-0.81532 4.718,-0.81532c1.8988,0 3.60735,0.31707 5.12566,0.95121c1.52193,0.63052 2.80289,1.5473 3.84288,2.75035l-3.18519,2.9406c-0.77546,-0.81532 -1.62158,-1.42228 -2.53837,-1.82088c-0.91679,-0.3986 -1.91691,-0.5979 -3.00039,-0.5979c-1.03999,0 -1.98938,0.16307 -2.84819,0.48919c-0.85518,0.32613 -1.59441,0.79539 -2.21767,1.40779c-0.62327,0.6124 -1.1034,1.33713 -1.4404,2.17419c-0.337,0.83706 -0.5055,1.76653 -0.5055,2.7884c0,1.00013 0.1685,1.91872 0.5055,2.75579c0.337,0.83706 0.81713,1.56723 1.4404,2.1905c0.62327,0.61964 1.35706,1.09253 2.20137,1.41866c0.84794,0.32613 1.78284,0.48919 2.80471,0.48919c0.97839,0 1.93141,-0.15763 2.85906,-0.47289c0.33508,-0.11343 0.66665,-0.25548 0.99469,-0.42615v-6.29211h4.53319v8.69133c-1.16319,0.88055 -2.51663,1.55636 -4.06031,2.02743c-1.54005,0.46745 -3.07467,0.70118 -4.60385,0.70118z" fill="url(#color-29)"/><path d="M214.20331,215.15361c-3.04024,0 -5.41736,-0.84612 -7.13135,-2.53837c-1.71399,-1.69587 -2.57098,-4.11647 -2.57098,-7.2618v-11.99611h4.95716v11.81673c0,2.04012 0.41854,3.50951 1.2556,4.40818c0.83706,0.89504 2.01113,1.34256 3.52219,1.34256c1.50744,0 2.67969,-0.44752 3.51675,-1.34256c0.83706,-0.89867 1.2556,-2.36806 1.2556,-4.40818v-11.81673h4.89737v11.99611c0,3.14533 -0.857,5.56593 -2.57098,7.2618c-1.71399,1.69225 -4.09111,2.53837 -7.13135,2.53837z" fill="url(#color-30)"/><path d="M165.46749,214.78399v-17.3881h-6.85414v-4.03856h18.67087v4.03856h-6.85958v17.3881z" fill="url(#color-31)"/><path d="M150.98576,214.78399v-21.42666h4.96259v21.42666z" fill="url(#color-32)"/><path d="M260.36477,214.78399v-21.42666h4.96259v21.42666z" fill="url(#color-33)"/><path d="M121.44814,215.02859c-0.81532,0 -1.51469,-0.28083 -2.0981,-0.8425c-0.58341,-0.56167 -0.87511,-1.28096 -0.87511,-2.15789c0,-0.87692 0.29171,-1.58535 0.87511,-2.12527c0.58341,-0.54355 1.28278,-0.81532 2.0981,-0.81532c0.83706,0 1.54005,0.27177 2.10897,0.81532c0.57254,0.53992 0.85881,1.24835 0.85881,2.12527c0,0.87692 -0.28627,1.59622 -0.85881,2.15789c-0.56891,0.56167 -1.2719,0.8425 -2.10897,0.8425z" fill="url(#color-34)"/><path d="M254.20977,215.02859c-0.81532,0 -1.51469,-0.28083 -2.0981,-0.8425c-0.58341,-0.56167 -0.87511,-1.28096 -0.87511,-2.15789c0,-0.87692 0.29171,-1.58535 0.87511,-2.12527c0.58341,-0.54355 1.28278,-0.81532 2.0981,-0.81532c0.83706,0 1.54005,0.27177 2.10897,0.81532c0.57254,0.53992 0.85881,1.24835 0.85881,2.12527c0,0.87692 -0.28627,1.59622 -0.85881,2.15789c-0.56891,0.56167 -1.2719,0.8425 -2.10897,0.8425z" fill="url(#color-35)"/></g></g></svg>
